<mxfile host="app.diagrams.net" agent="Mozilla/5.0 (X11; Ubuntu; Linux x86_64; rv:139.0) Gecko/20100101 Firefox/139.0" version="27.1.3">
  <diagram name="Page-1" id="UTIDOGDJrQeoB9YpMR3A">
    <mxGraphModel dx="1425" dy="751" grid="1" gridSize="10" guides="1" tooltips="1" connect="1" arrows="1" fold="1" page="1" pageScale="1" pageWidth="850" pageHeight="1100" math="0" shadow="0">
      <root>
        <mxCell id="0" />
        <mxCell id="1" parent="0" />
        <mxCell id="n4D9--4kgp9LNXjerOY5-19" value="Processing on Cloud-Server" style="rounded=0;whiteSpace=wrap;html=1;dashed=1;align=center;labelPosition=center;verticalLabelPosition=middle;verticalAlign=top;" parent="1" vertex="1">
          <mxGeometry x="622" y="440" width="290" height="313" as="geometry" />
        </mxCell>
        <mxCell id="lVysJ7THOerhWQVjg0YG-1" value="Across-Region Merging" style="rounded=0;whiteSpace=wrap;html=1;dashed=1;align=center;labelPosition=center;verticalLabelPosition=middle;verticalAlign=top;" vertex="1" parent="1">
          <mxGeometry x="670.5" y="483" width="190" height="230" as="geometry" />
        </mxCell>
        <mxCell id="n4D9--4kgp9LNXjerOY5-12" value="Regional Processing" style="rounded=0;whiteSpace=wrap;html=1;verticalAlign=top;dashed=1;" parent="1" vertex="1">
          <mxGeometry x="610" y="140" width="400" height="226" as="geometry" />
        </mxCell>
        <mxCell id="n4D9--4kgp9LNXjerOY5-9" value="" style="rounded=0;whiteSpace=wrap;html=1;verticalAlign=top;dashed=1;" parent="1" vertex="1">
          <mxGeometry x="600" y="150" width="400" height="226" as="geometry" />
        </mxCell>
        <mxCell id="n4D9--4kgp9LNXjerOY5-5" value="Regional Processing on Edge-Server" style="rounded=0;whiteSpace=wrap;html=1;verticalAlign=top;dashed=1;" parent="1" vertex="1">
          <mxGeometry x="590" y="164" width="400" height="226" as="geometry" />
        </mxCell>
        <mxCell id="j88k93eBKVXcm9sNCGts-28" style="edgeStyle=orthogonalEdgeStyle;rounded=0;orthogonalLoop=1;jettySize=auto;html=1;entryX=0;entryY=0.5;entryDx=0;entryDy=0;" parent="1" source="j88k93eBKVXcm9sNCGts-26" target="j88k93eBKVXcm9sNCGts-27" edge="1">
          <mxGeometry relative="1" as="geometry" />
        </mxCell>
        <mxCell id="j88k93eBKVXcm9sNCGts-29" value="&lt;div&gt;Vehicle&lt;/div&gt;&lt;div&gt;Record&lt;/div&gt;&lt;div&gt;Clusters&lt;/div&gt;" style="edgeLabel;html=1;align=center;verticalAlign=bottom;resizable=0;points=[];" parent="j88k93eBKVXcm9sNCGts-28" vertex="1" connectable="0">
          <mxGeometry x="0.04" y="2" relative="1" as="geometry">
            <mxPoint x="-7" y="-3" as="offset" />
          </mxGeometry>
        </mxCell>
        <mxCell id="j88k93eBKVXcm9sNCGts-26" value="Multi-Modal Clustering" style="whiteSpace=wrap;html=1;aspect=fixed;labelPosition=center;verticalLabelPosition=middle;align=center;verticalAlign=top;dashed=1;" parent="1" vertex="1">
          <mxGeometry x="630" y="224" width="130" height="130" as="geometry" />
        </mxCell>
        <mxCell id="j88k93eBKVXcm9sNCGts-10" value="Data Preprocessing" style="rounded=0;whiteSpace=wrap;html=1;dashed=1;align=center;labelPosition=center;verticalLabelPosition=middle;verticalAlign=top;" parent="1" vertex="1">
          <mxGeometry x="90" y="280" width="360" height="330" as="geometry" />
        </mxCell>
        <mxCell id="j88k93eBKVXcm9sNCGts-9" style="edgeStyle=orthogonalEdgeStyle;rounded=0;orthogonalLoop=1;jettySize=auto;html=1;" parent="1" source="j88k93eBKVXcm9sNCGts-1" target="j88k93eBKVXcm9sNCGts-8" edge="1">
          <mxGeometry relative="1" as="geometry" />
        </mxCell>
        <mxCell id="j88k93eBKVXcm9sNCGts-1" value="&lt;div&gt;Vehicle Snapshots&lt;/div&gt;" style="rounded=1;whiteSpace=wrap;html=1;" parent="1" vertex="1">
          <mxGeometry x="130" y="320" width="120" height="60" as="geometry" />
        </mxCell>
        <mxCell id="j88k93eBKVXcm9sNCGts-6" style="edgeStyle=orthogonalEdgeStyle;rounded=0;orthogonalLoop=1;jettySize=auto;html=1;" parent="1" source="j88k93eBKVXcm9sNCGts-2" target="j88k93eBKVXcm9sNCGts-4" edge="1">
          <mxGeometry relative="1" as="geometry" />
        </mxCell>
        <mxCell id="j88k93eBKVXcm9sNCGts-2" value="&lt;div&gt;Traffic Cameras&lt;/div&gt;" style="rounded=1;whiteSpace=wrap;html=1;" parent="1" vertex="1">
          <mxGeometry x="130" y="420" width="120" height="60" as="geometry" />
        </mxCell>
        <mxCell id="j88k93eBKVXcm9sNCGts-7" style="edgeStyle=orthogonalEdgeStyle;rounded=0;orthogonalLoop=1;jettySize=auto;html=1;" parent="1" source="j88k93eBKVXcm9sNCGts-3" target="j88k93eBKVXcm9sNCGts-4" edge="1">
          <mxGeometry relative="1" as="geometry" />
        </mxCell>
        <mxCell id="j88k93eBKVXcm9sNCGts-3" value="&lt;div&gt;Road Graph&lt;/div&gt;" style="rounded=1;whiteSpace=wrap;html=1;" parent="1" vertex="1">
          <mxGeometry x="130" y="520" width="120" height="60" as="geometry" />
        </mxCell>
        <mxCell id="n4D9--4kgp9LNXjerOY5-3" style="edgeStyle=orthogonalEdgeStyle;rounded=0;orthogonalLoop=1;jettySize=auto;html=1;entryX=0;entryY=0.5;entryDx=0;entryDy=0;" parent="1" source="j88k93eBKVXcm9sNCGts-4" target="j88k93eBKVXcm9sNCGts-26" edge="1">
          <mxGeometry relative="1" as="geometry" />
        </mxCell>
        <mxCell id="lVysJ7THOerhWQVjg0YG-4" style="edgeStyle=orthogonalEdgeStyle;rounded=0;orthogonalLoop=1;jettySize=auto;html=1;" edge="1" parent="1" source="j88k93eBKVXcm9sNCGts-4" target="lVysJ7THOerhWQVjg0YG-1">
          <mxGeometry relative="1" as="geometry" />
        </mxCell>
        <mxCell id="j88k93eBKVXcm9sNCGts-4" value="Region Partitioning" style="rounded=1;whiteSpace=wrap;html=1;" parent="1" vertex="1">
          <mxGeometry x="290" y="470" width="120" height="60" as="geometry" />
        </mxCell>
        <mxCell id="n4D9--4kgp9LNXjerOY5-1" style="edgeStyle=orthogonalEdgeStyle;rounded=0;orthogonalLoop=1;jettySize=auto;html=1;" parent="1" source="j88k93eBKVXcm9sNCGts-8" target="j88k93eBKVXcm9sNCGts-26" edge="1">
          <mxGeometry relative="1" as="geometry" />
        </mxCell>
        <mxCell id="n4D9--4kgp9LNXjerOY5-4" value="&lt;div&gt;Vehicle&lt;/div&gt;&lt;div&gt;Records&lt;/div&gt;" style="edgeLabel;html=1;align=center;verticalAlign=middle;resizable=0;points=[];" parent="n4D9--4kgp9LNXjerOY5-1" vertex="1" connectable="0">
          <mxGeometry x="0.4364" y="-2" relative="1" as="geometry">
            <mxPoint x="3" y="-22" as="offset" />
          </mxGeometry>
        </mxCell>
        <mxCell id="j88k93eBKVXcm9sNCGts-8" value="Feature Extraction" style="rounded=1;whiteSpace=wrap;html=1;" parent="1" vertex="1">
          <mxGeometry x="290" y="320" width="120" height="60" as="geometry" />
        </mxCell>
        <mxCell id="n4D9--4kgp9LNXjerOY5-29" style="edgeStyle=orthogonalEdgeStyle;rounded=0;orthogonalLoop=1;jettySize=auto;html=1;" parent="1" source="j88k93eBKVXcm9sNCGts-13" target="j88k93eBKVXcm9sNCGts-15" edge="1">
          <mxGeometry relative="1" as="geometry" />
        </mxCell>
        <mxCell id="j88k93eBKVXcm9sNCGts-13" value="Rough Search" style="rounded=1;whiteSpace=wrap;html=1;" parent="1" vertex="1">
          <mxGeometry x="650" y="259" width="90" height="30" as="geometry" />
        </mxCell>
        <mxCell id="j88k93eBKVXcm9sNCGts-15" value="Fine Search" style="rounded=1;whiteSpace=wrap;html=1;" parent="1" vertex="1">
          <mxGeometry x="650" y="304" width="90" height="30" as="geometry" />
        </mxCell>
        <mxCell id="lVysJ7THOerhWQVjg0YG-3" style="edgeStyle=orthogonalEdgeStyle;rounded=0;orthogonalLoop=1;jettySize=auto;html=1;entryX=1;entryY=0.5;entryDx=0;entryDy=0;" edge="1" parent="1" source="j88k93eBKVXcm9sNCGts-27" target="lVysJ7THOerhWQVjg0YG-1">
          <mxGeometry relative="1" as="geometry">
            <Array as="points">
              <mxPoint x="970" y="289" />
              <mxPoint x="970" y="598" />
            </Array>
          </mxGeometry>
        </mxCell>
        <mxCell id="lVysJ7THOerhWQVjg0YG-5" value="&lt;div&gt;Vehicle&lt;/div&gt;&lt;div&gt;Record&lt;/div&gt;&lt;div&gt;Clusters&lt;/div&gt;&lt;div&gt;over&lt;/div&gt;&lt;div&gt;ZeroMQ&lt;/div&gt;" style="edgeLabel;html=1;align=center;verticalAlign=middle;resizable=0;points=[];" vertex="1" connectable="0" parent="lVysJ7THOerhWQVjg0YG-3">
          <mxGeometry x="-0.3854" y="-1" relative="1" as="geometry">
            <mxPoint x="31" y="57" as="offset" />
          </mxGeometry>
        </mxCell>
        <mxCell id="j88k93eBKVXcm9sNCGts-27" value="Map-Matching" style="rounded=1;whiteSpace=wrap;html=1;" parent="1" vertex="1">
          <mxGeometry x="830" y="259" width="120" height="60" as="geometry" />
        </mxCell>
        <mxCell id="n4D9--4kgp9LNXjerOY5-28" value="" style="edgeStyle=orthogonalEdgeStyle;rounded=0;orthogonalLoop=1;jettySize=auto;html=1;" parent="1" source="n4D9--4kgp9LNXjerOY5-24" target="n4D9--4kgp9LNXjerOY5-25" edge="1">
          <mxGeometry relative="1" as="geometry" />
        </mxCell>
        <mxCell id="n4D9--4kgp9LNXjerOY5-24" value="Across-Region Matching" style="rounded=1;whiteSpace=wrap;html=1;" parent="1" vertex="1">
          <mxGeometry x="705.5" y="523" width="120" height="60" as="geometry" />
        </mxCell>
        <mxCell id="n4D9--4kgp9LNXjerOY5-25" value="Vehicle Record Cluster Merging" style="rounded=1;whiteSpace=wrap;html=1;" parent="1" vertex="1">
          <mxGeometry x="705.5" y="618" width="120" height="60" as="geometry" />
        </mxCell>
      </root>
    </mxGraphModel>
  </diagram>
</mxfile>
